<svg width="355" height="80" viewBox="0 0 355 80" fill="none" xmlns="http://www.w3.org/2000/svg">
<path d="M351.993 40C351.993 41.939 350.887 43.9067 348.61 45.8819C346.336 47.8545 342.952 49.7804 338.547 51.6288C329.742 55.3238 316.971 58.6624 301.151 61.4702C269.52 67.0844 225.803 70.5597 177.5 70.5597C129.197 70.5597 85.4794 67.0844 53.8486 61.4702C38.0292 58.6624 25.2575 55.3238 16.4523 51.6288C12.0476 49.7804 8.66409 47.8545 6.38987 45.8819C4.1126 43.9067 3.00702 41.939 3.00702 40C3.00702 38.061 4.1126 36.0933 6.38987 34.1181C8.66409 32.1455 12.0476 30.2196 16.4523 28.3712C25.2575 24.6762 38.0292 21.3376 53.8486 18.5298C85.4794 12.9156 129.197 9.44026 177.5 9.44026C225.803 9.44026 269.52 12.9156 301.151 18.5298C316.971 21.3376 329.742 24.6762 338.547 28.3712C342.952 30.2196 346.336 32.1455 348.61 34.1181C350.887 36.0933 351.993 38.061 351.993 40Z" stroke="white"/>
<path d="M351.567 48.9901C351.384 50.9255 350.095 52.8317 347.637 54.6847C345.182 56.5353 341.625 58.2821 337.056 59.899C327.924 63.1313 314.868 65.8038 298.822 67.7897C266.738 71.7605 222.799 72.9749 174.614 70.4863C126.429 67.9977 83.1458 62.2784 52.1225 55.0483C36.6068 51.4323 24.1817 47.4438 15.7471 43.3042C11.5278 41.2335 8.33449 39.138 6.25215 37.053C4.16714 34.9654 3.24955 32.9452 3.43278 31.0099C3.61601 29.0745 4.90533 27.1683 7.36342 25.3153C9.81837 23.4647 13.3755 21.7179 17.9439 20.101C27.0764 16.8687 40.1322 14.1962 56.1782 12.2103C88.262 8.23949 132.201 7.02506 180.386 9.5137C228.571 12.0023 271.854 17.7216 302.878 24.9517C318.393 28.5677 330.818 32.5562 339.253 36.6958C343.472 38.7665 346.666 40.862 348.748 42.947C350.833 45.0346 351.75 47.0548 351.567 48.9901Z" stroke="white"/>
</svg>
