<svg width="1440" height="900" viewBox="0 0 1440 900" fill="none" xmlns="http://www.w3.org/2000/svg">
<g opacity="0.4" clip-path="url(#clip0_42_5)">
<path d="M205.8 833.97C204.6 831.18 204.6 828.04 204.63 825C204.24 828.11 203.42 831.25 201.54 833.76C199.66 836.26 195.1 839.34 192 838.92C197.34 840.89 201.27 846.23 201.56 851.92C202.43 849.01 203.5 846.1 205.31 843.66C207.12 841.22 209.77 839.27 212.78 838.88C209.76 839.12 207 836.76 205.8 833.97Z" fill="white"/>
</g>
<g opacity="0.4" clip-path="url(#clip1_42_5)">
<path d="M1379.99 222.95C1381.19 225.74 1381.19 228.88 1381.16 231.92C1381.55 228.81 1382.37 225.67 1384.25 223.16C1386.13 220.66 1390.69 217.58 1393.79 218C1388.45 216.03 1384.52 210.69 1384.23 205C1383.36 207.91 1382.29 210.82 1380.48 213.26C1378.67 215.7 1376.02 217.65 1373.01 218.04C1376.03 217.8 1378.79 220.16 1379.99 222.95Z" fill="white"/>
</g>
<g opacity="0.4" clip-path="url(#clip2_42_5)">
<path d="M61.647 91.8278C61.5002 96.2226 59.5703 100.342 57.6627 104.312C60.0838 100.471 63.0852 96.8531 67.0845 94.7112C71.0776 92.5824 78.9293 91.3333 82.7219 93.7821C76.9549 87.9285 75.1016 78.5171 78.2199 70.8749C75.2945 74.1599 72.1078 77.3225 68.243 79.4154C64.3781 81.5084 59.7169 82.4443 55.544 81.1133C59.6377 82.6472 61.7937 87.433 61.647 91.8278Z" fill="white"/>
</g>
<rect opacity="0.4" x="151" y="-9" width="1138" height="918" stroke="white" stroke-width="2"/>
<path opacity="0.4" d="M1290 698L1462 698" stroke="white" stroke-width="2"/>
<path opacity="0.4" d="M1288 120H152" stroke="white" stroke-width="2"/>
<path opacity="0.4" d="M-6.19888e-06 698L150 698" stroke="white" stroke-width="2"/>
<defs>
<clipPath id="clip0_42_5">
<rect width="20.79" height="26.92" fill="white" transform="translate(192 825)"/>
</clipPath>
<clipPath id="clip1_42_5">
<rect width="20.79" height="26.92" fill="white" transform="translate(1393.79 231.92) rotate(-180)"/>
</clipPath>
<clipPath id="clip2_42_5">
<rect width="30" height="39" fill="white" transform="translate(74.1664 112.044) rotate(-154.897)"/>
</clipPath>
</defs>
</svg>
